<?xml version="1.0" encoding="UTF-8"?><svg id="Layer_2" xmlns="http://www.w3.org/2000/svg" viewBox="0 0 67.79 71.41"><defs><style>.cls-1{fill:#e8b121;}</style></defs><polygon class="cls-1" points="3.16 0 21.08 0 21.08 45.44 9.21 45.44 9.21 11.43 .37 11.43 3.16 0"/><path class="cls-1" d="M52.42,0c-8.49,0-15.37,6.88-15.37,15.37s6.88,15.37,15.37,15.37,15.37-6.88,15.37-15.37S60.91,0,52.42,0Zm0,22.2c-3.77,0-6.83-3.06-6.83-6.83s3.06-6.83,6.83-6.83,6.83,3.06,6.83,6.83-3.06,6.83-6.83,6.83Z"/><path class="cls-1" d="M15.37,40.67c-8.49,0-15.37,6.88-15.37,15.37s6.88,15.37,15.37,15.37,15.37-6.88,15.37-15.37-6.88-15.37-15.37-15.37Zm0,22.2c-3.77,0-6.83-3.06-6.83-6.83s3.06-6.83,6.83-6.83,6.83,3.06,6.83,6.83-3.06,6.83-6.83,6.83Z"/><polygon class="cls-1" points="52.42 54.84 48.99 50.82 52.42 46.81 48.99 42.79 52.42 38.77 48.99 34.75 52.42 30.74 52.42 25.45 37.05 15.37 37.05 62.88 44.73 71.41 52.42 62.88 48.99 58.86 52.42 54.84"/></svg>