<?xml version="1.0" encoding="UTF-8"?><svg id="Layer_2" xmlns="http://www.w3.org/2000/svg" viewBox="0 0 425.01 101.75"><defs><style>.cls-1{letter-spacing:-.03em;}.cls-2{font-family:WorkSansRoman-Medium, 'Work Sans';font-size:87.19px;font-variation-settings:'wght' 500;}.cls-2,.cls-3{fill:#e8b121;}.cls-4{letter-spacing:-.04em;}.cls-5{letter-spacing:-.03em;}.cls-6{letter-spacing:-.03em;}</style></defs><polygon class="cls-3" points="3.16 4.95 21.08 4.95 21.08 50.39 9.21 50.39 9.21 16.37 .37 16.37 3.16 4.95"/><path class="cls-3" d="M52.42,4.95c-8.49,0-15.37,6.88-15.37,15.37s6.88,15.37,15.37,15.37,15.37-6.88,15.37-15.37-6.88-15.37-15.37-15.37Zm0,22.2c-3.77,0-6.83-3.06-6.83-6.83s3.06-6.83,6.83-6.83,6.83,3.06,6.83,6.83-3.06,6.83-6.83,6.83Z"/><path class="cls-3" d="M15.37,45.62c-8.49,0-15.37,6.88-15.37,15.37s6.88,15.37,15.37,15.37,15.37-6.88,15.37-15.37-6.88-15.37-15.37-15.37Zm0,22.2c-3.77,0-6.83-3.06-6.83-6.83s3.06-6.83,6.83-6.83,6.83,3.06,6.83,6.83-3.06,6.83-6.83,6.83Z"/><polygon class="cls-3" points="52.42 59.79 48.99 55.77 52.42 51.75 48.99 47.73 52.42 43.72 48.99 39.7 52.42 35.68 52.42 30.39 37.05 20.31 37.05 67.82 44.73 76.36 52.42 67.82 48.99 63.8 52.42 59.79"/><text class="cls-2" transform="translate(88.84 72.37) scale(.91 1)"><tspan class="cls-5" x="0" y="0">Fi</tspan><tspan class="cls-4" x="72.63" y="0">r</tspan><tspan class="cls-5" x="104.97" y="0">st</tspan><tspan class="cls-1" x="183.53" y="0">p</tspan><tspan class="cls-6" x="235.84" y="0">ass</tspan></text></svg>